<svg width="71" height="36" viewBox="0 0 71 36" fill="none" xmlns="http://www.w3.org/2000/svg">
<g clip-path="url(#clip0_8203_148)">
<path d="M67.9112 17.0815L67.8741 17.1187C68.1343 16.4125 68.6546 16.1523 69.1006 16.1523C69.7325 16.1523 70.29 16.6355 70.29 17.3417C70.29 17.4904 70.29 17.6762 70.2157 17.8992C68.9148 21.2444 66.1643 22.9541 63.4882 23.2143C62.2617 25.2957 60.2546 26.8196 57.3926 26.8196C53.3041 26.8196 51.4829 23.586 51.4829 20.055C51.4829 15.7063 54.2334 10.8744 58.8422 10.8744C59.8457 10.8744 60.7006 11.0975 61.4068 11.3948C63.4882 12.1753 64.8263 14.8886 64.8263 17.7877C64.8263 18.7169 64.7519 19.6461 64.5289 20.5382C65.9042 20.055 67.205 18.9399 67.9112 17.0815ZM60.1431 13.9222V13.8851C59.3254 13.8851 58.8422 14.9629 58.8422 16.2638C58.8422 18.1594 59.8829 19.9063 61.5183 20.5382C61.7785 19.7205 61.89 18.7913 61.89 17.7134C61.89 15.632 61.2581 13.9222 60.1431 13.9222ZM57.4298 24.1063C58.4705 24.1063 59.5112 23.6603 60.3289 22.7311C57.913 21.6532 56.3891 19.1258 56.3891 16.7098C56.3891 15.8921 56.5378 15.0373 56.7608 14.2939C55.2741 15.5205 54.4192 17.9364 54.4192 20.055C54.4192 22.8054 55.7201 24.1063 57.4298 24.1063Z" fill="black"/>
<path d="M52.0568 17.0815L52.0196 17.1187C52.2798 16.4125 52.7258 16.1152 53.1718 16.1152C53.8037 16.1152 54.4355 16.6727 54.4355 17.3789C54.4355 17.5647 54.3984 17.7134 54.324 17.8992C52.8745 21.4302 50.7187 25.5559 47.2621 27.9718L47.1878 28.7152C46.7789 33.1754 44.5117 36.0001 41.6497 36.0001C39.4939 36.0001 38.2302 34.5134 38.2302 32.7665C38.2302 29.6072 41.4638 28.455 44.4745 26.5223C44.5488 25.7417 44.586 24.8497 44.6231 23.8461C43.1364 25.4815 41.5382 26.1506 40.1258 26.1506C37.301 26.1506 34.9966 23.8461 34.9966 20.3152C34.9966 14.8886 38.5647 11.3205 42.5417 11.3205H42.5789C45.2922 11.3205 48.1913 12.77 48.1913 15.3718C48.1913 16.2267 47.8196 20.8727 47.5223 24.478C49.5293 22.5824 51.2019 19.4975 52.0568 17.0815ZM40.5346 23.4745C41.9099 23.4745 43.7683 22.6196 44.9205 18.4196C45.1063 17.4904 45.2178 16.6727 45.1807 15.7063C44.9577 14.7028 44.1028 14.1081 42.8762 14.1081C40.3488 14.1081 37.9329 16.524 37.9329 20.2037C37.9329 22.4338 38.9736 23.4745 40.5346 23.4745ZM41.947 33.2869H41.9842C42.7647 33.2869 43.6196 32.7665 44.1771 29.4214C42.5417 30.3877 41.0178 31.3541 41.0178 32.5063C41.0178 32.9895 41.3895 33.2869 41.947 33.2869Z" fill="black"/>
<path d="M35.6488 17.0815L35.6117 17.1187C35.8718 16.4125 36.3922 16.1523 36.8382 16.1523C37.4701 16.1523 38.0276 16.6355 38.0276 17.3417C38.0276 17.4904 38.0276 17.6762 37.9533 17.8992C36.6524 21.2444 33.9019 22.9541 31.2258 23.2143C29.9993 25.2957 27.9922 26.8196 25.1302 26.8196C21.0417 26.8196 19.2205 23.586 19.2205 20.055C19.2205 15.7063 21.9709 10.8744 26.5798 10.8744C27.5833 10.8744 28.4382 11.0975 29.1444 11.3948C31.2258 12.1753 32.5639 14.8886 32.5639 17.7877C32.5639 18.7169 32.4895 19.6461 32.2665 20.5382C33.6418 20.055 34.9426 18.9399 35.6488 17.0815ZM27.8807 13.9222V13.8851C27.063 13.8851 26.5798 14.9629 26.5798 16.2638C26.5798 18.1594 27.6205 19.9063 29.2559 20.5382C29.5161 19.7205 29.6276 18.7913 29.6276 17.7134C29.6276 15.632 28.9957 13.9222 27.8807 13.9222ZM25.1674 24.1063C26.2081 24.1063 27.2488 23.6603 28.0665 22.7311C25.6506 21.6532 24.1267 19.1258 24.1267 16.7098C24.1267 15.8921 24.2754 15.0373 24.4984 14.2939C23.0117 15.5205 22.1568 17.9364 22.1568 20.055C22.1568 22.8054 23.4577 24.1063 25.1674 24.1063Z" fill="black"/>
<path d="M21.1096 15.9083C20.5892 15.9083 20.1432 16.1685 19.8458 16.8747C18.8795 19.3278 16.8723 23.4907 14.828 23.4907C13.5408 23.4907 12.5447 23.1996 11.5381 22.9054C10.5102 22.605 9.47136 22.3013 8.10047 22.3013C7.61727 22.3013 6.94823 22.3757 6.31636 22.4872C8.21994 19.8914 8.93108 16.7477 9.62016 10.8054C8.3227 10.7228 7.26729 10.4831 6.49801 10.241C5.67636 17.7775 4.7433 20.6511 1.33572 23.4907C0.889697 23.8624 0.666687 24.3828 0.666687 24.9032C0.666687 25.7209 1.3729 26.4271 2.26496 26.4271C2.56231 26.4271 2.89682 26.3156 3.23134 26.1669C5.12696 25.312 6.27919 25.089 7.69161 25.089C8.58978 25.089 9.66452 25.3459 10.8152 25.6208C12.1406 25.9376 13.5667 26.2784 14.9396 26.2784C17.9502 26.2784 19.9202 23.3421 22.1131 17.6552C22.2247 17.4694 22.2618 17.2464 22.2618 17.0605C22.2618 16.3543 21.7043 15.9083 21.1096 15.9083Z" fill="black"/>
<path fill-rule="evenodd" clip-rule="evenodd" d="M6.6866 8.70287C7.35969 8.93784 8.41051 9.2114 9.77294 9.29233L9.99595 9.29222C14.1961 9.29222 16.9466 6.6904 16.9466 3.56821C16.9466 1.56109 15.3855 0 13.1925 0C10.2561 0 8.21185 2.00712 7.17112 5.98419C5.87021 5.27798 4.97816 4.01424 4.53213 2.41598C4.30911 1.63543 3.82592 1.15223 3.15687 1.15223C2.33916 1.15223 1.81879 1.78411 1.81879 2.63899C1.81879 5.16648 3.78875 7.58245 6.68792 8.69752L6.6866 8.70287ZM10.219 6.57889C10.7765 4.01424 11.6686 2.78767 12.858 2.78767C13.4899 2.78767 13.8987 3.15936 13.8987 3.8284C13.8987 5.05497 12.5978 6.50455 10.219 6.57889Z" fill="black"/>
</g>
<defs>
<clipPath id="clip0_8203_148">
<rect width="70" height="36" fill="white" transform="translate(0.666687)"/>
</clipPath>
</defs>
</svg>
